<?xml version="1.0" standalone="no"?>
<svg viewBox="0 0 200 200" xmlns="http://www.w3.org/2000/svg">
  <path fill="#FF0066" d="M34.7,-54.9C48.3,-52.3,64.9,-49.7,75.1,-40.5C85.4,-31.4,89.4,-15.7,83.8,-3.2C78.3,9.3,63.2,18.5,54.5,30.4C45.8,42.2,43.4,56.6,35.4,67.5C27.3,78.5,13.7,85.9,2.5,81.5C-8.6,77.1,-17.2,60.9,-26,50.4C-34.8,40,-43.8,35.2,-54.8,27.8C-65.7,20.3,-78.5,10.2,-81.9,-1.9C-85.2,-14,-79.1,-28.1,-71.8,-41.8C-64.5,-55.5,-56,-68.9,-43.8,-72.3C-31.7,-75.7,-15.8,-69.1,-2.6,-64.5C10.6,-60,21.1,-57.4,34.7,-54.9Z" transform="translate(100 100)" />
</svg>
